<svg width="107" height="107" viewBox="0 0 107 107" fill="none" xmlns="http://www.w3.org/2000/svg">
<path d="M5.34259 101.643H101.656V5.32922H5.34259V101.643ZM106.985 106.985H0V0H106.985V106.985Z" fill="#E3EAF7"/>
<path d="M64.4448 43.2808H89.0742V18.6515H64.4448V43.2808ZM95.0178 49.2245H58.5145V12.7213H95.0178V49.2245Z" fill="#E3EAF7"/>
<path d="M55.0421 45.5381V43.2808H48.484V12.7213H42.5671V19.9738H42.5403V43.2808H35.9824H17.911V18.6515V12.7213H11.9807V49.2245H35.9824H48.484H49.1118V54.2999H55.0421V45.5381Z" fill="#E3EAF7"/>
<path d="M11.9807 94.2492H17.911V89.1471V64.5177H42.5403V87.2905H42.5671V94.2492H48.484V58.5741H11.9807V94.2492Z" fill="#E3EAF7"/>
<path d="M95.0178 58.5741H58.5145V94.2492H64.4314V87.2772H64.4448V64.5177H89.0742V87.2772H89.0875V94.2492H95.0178V58.5741Z" fill="#E3EAF7"/>
</svg>
